<svg xmlns="http://www.w3.org/2000/svg" viewBox="0 0 1200 500" width="1200" height="500">
<defs>
<linearGradient id="sky" x1="0" y1="0" x2="0" y2="1"><stop offset="0" stop-color="#6fa6df"/><stop offset=".62" stop-color="#bcd9ef"/><stop offset="1" stop-color="#ffe6ad"/></linearGradient>
<linearGradient id="cliff" x1="0" y1="0" x2="1" y2="0"><stop offset="0" stop-color="#efe4c8"/><stop offset="1" stop-color="#cbb98f"/></linearGradient>
<linearGradient id="scale" x1="0" y1="0" x2="0" y2="1"><stop offset="0" stop-color="#f0c75a"/><stop offset="1" stop-color="#c9922a"/></linearGradient>
<linearGradient id="water" x1="0" y1="0" x2="0" y2="1"><stop offset="0" stop-color="#e9f4fb"/><stop offset="1" stop-color="#8fbbd8"/></linearGradient>
</defs>
<rect width="1200" height="500" fill="url(#sky)"/>
<circle cx="250" cy="120" r="54" fill="#fff4cf" fill-opacity=".75"/>
<path d="M120 90 C150 80 170 88 190 84 M860 70 C880 64 896 68 912 64" stroke="#fff" stroke-opacity=".7" stroke-width="10" stroke-linecap="round" fill="none"/>
<path d="M0 300 C140 250 250 270 380 240 C480 216 560 250 660 230 L660 500 H0 Z" fill="#a9cf86"/>
<path d="M650 500 V250 C690 236 720 228 760 222 C790 218 820 210 880 220 C960 210 1060 190 1200 200 V500 Z" fill="url(#cliff)"/>
<g transform="translate(0 70)">
<path d="M740 200 V260 M760 190 V250 M780 186 V246 M800 184 V244 M820 184 V244 M860 182 V242 M880 180 V240 M900 180 V240 M920 178 V238 M940 176 V236" stroke="#a8916a" stroke-width="3" stroke-linecap="round"/>
<path d="M726 222 L952 204" stroke="#a8916a" stroke-width="3" stroke-linecap="round"/>
<path d="M1010 136 C1016 220 1006 330 1020 500 H1052 C1040 330 1048 220 1040 132 Z" fill="url(#water)"/>
<path d="M1020 200 V260 M1032 230 V300 M1026 320 V380" stroke="#fff" stroke-width="3" stroke-linecap="round" stroke-opacity=".8"/>
</g>
<g transform="translate(0 70)">
<path d="M1108 146 C1140 160 1134 214 1104 246 C1084 268 1090 296 1110 306" stroke="url(#scale)" stroke-width="15" fill="none" stroke-linecap="round"/>
<path d="M1108 146 C1140 160 1134 214 1104 246 C1084 268 1090 296 1110 306" stroke="#a8781c" stroke-width="2" fill="none" stroke-dasharray="5 9"/>
<path d="M1110 306 L1128 300 L1118 318 L1104 316 Z" fill="#c9922a" stroke="#a8781c" stroke-width="1.5"/>
<path d="M990 118 C996 82 1016 50 1048 30 C1058 58 1076 92 1098 122 Z" fill="#f3d98a" stroke="#a8781c" stroke-width="2"/>
<path d="M1048 30 L1012 118 M1048 30 L1040 120 M1048 30 L1068 122" stroke="#a8781c" stroke-width="2" fill="none"/>
<path d="M1012 118 C1018 106 1026 104 1030 118 C1036 106 1050 106 1056 120 C1062 110 1072 110 1080 122" fill="#e8b3a4" fill-opacity=".7"/>
<path d="M878 150 C890 122 944 108 1004 110 C1062 112 1100 126 1114 150 Z" fill="url(#scale)" stroke="#a8781c" stroke-width="2"/>
<ellipse cx="1072" cy="136" rx="26" ry="14" fill="#c9922a" fill-opacity=".55"/>
<path d="M912 138 C890 118 884 94 900 72" stroke="url(#scale)" stroke-width="24" fill="none" stroke-linecap="round"/>
<path d="M902 140 C882 118 876 96 888 76" stroke="#e8b3a4" stroke-width="5" fill="none" stroke-linecap="round"/>
<path d="M924 128 C904 110 900 92 912 76" stroke="#a8781c" stroke-width="2" fill="none" stroke-opacity=".6"/>
<path d="M938 64 C930 50 908 46 892 52 L852 62 C845 64 845 73 852 75 L888 80 C904 86 926 82 938 74 Z" fill="url(#scale)" stroke="#a8781c" stroke-width="2"/>
<path d="M852 71 L890 77" stroke="#a8781c" stroke-width="1.5"/>
<circle cx="857" cy="65" r="1.8" fill="#6b4a14"/>
<circle cx="910" cy="61" r="4" fill="#2a2019"/><circle cx="911.5" cy="59.5" r="1.3" fill="#fff"/>
<path d="M918 56 C930 44 944 36 962 32 C950 42 940 52 930 60 Z M926 62 C940 56 954 54 968 54 C954 60 944 64 932 68 Z" fill="#a8781c"/>
<path d="M934 72 L944 70 L938 80 Z M930 84 L940 84 L932 92 Z M922 96 L932 98 L922 104 Z" fill="#a8781c"/>
<path d="M906 146 C904 158 902 166 898 174 M930 148 C930 160 928 168 926 176 M1060 148 C1062 158 1060 166 1058 174" stroke="#c9922a" stroke-width="9" stroke-linecap="round" fill="none"/>
<path d="M892 176 l4 6 M898 177 l2 7 M904 176 l0 7 M920 178 l3 6 M926 179 l1 7 M932 178 l-1 7" stroke="#6b4a14" stroke-width="2" stroke-linecap="round"/>
<path d="M899 172 L868 214" stroke="#7a5a36" stroke-width="3" stroke-linecap="round"/>
<path d="M883 194 L846 206 L858 214 L848 226 L874 214 Z" fill="#1f3a6b" stroke="#a8781c" stroke-width="1.5"/>
<g fill="#d9a93a"><ellipse cx="862" cy="207.9" rx="1.3" ry="2.3" transform="rotate(0 862 211)"/><ellipse cx="862" cy="207.9" rx="1.3" ry="2.3" transform="rotate(36 862 211)"/><ellipse cx="862" cy="207.9" rx="1.3" ry="2.3" transform="rotate(72 862 211)"/><ellipse cx="862" cy="207.9" rx="1.3" ry="2.3" transform="rotate(108 862 211)"/><ellipse cx="862" cy="207.9" rx="1.3" ry="2.3" transform="rotate(144 862 211)"/><ellipse cx="862" cy="207.9" rx="1.3" ry="2.3" transform="rotate(180 862 211)"/><ellipse cx="862" cy="207.9" rx="1.3" ry="2.3" transform="rotate(216 862 211)"/><ellipse cx="862" cy="207.9" rx="1.3" ry="2.3" transform="rotate(252 862 211)"/><ellipse cx="862" cy="207.9" rx="1.3" ry="2.3" transform="rotate(288 862 211)"/><ellipse cx="862" cy="207.9" rx="1.3" ry="2.3" transform="rotate(324 862 211)"/></g><circle cx="862" cy="211" r="1.8" fill="#a8781c"/>
</g>
<path d="M1040 500 C1000 450 900 420 760 420 C600 420 520 380 440 372 C380 366 320 380 250 420 C180 460 120 480 60 500 Z" fill="#7fb0d2"/>
<path d="M1000 470 C900 440 800 436 700 436 M520 392 C470 386 420 386 380 392" stroke="#e9f4fb" stroke-width="4" stroke-linecap="round" fill="none" stroke-opacity=".8"/>
<path d="M0 360 C120 330 220 336 300 344 C400 356 480 350 560 336 C620 326 680 330 720 340 L720 360 C680 356 620 356 560 366 C470 382 360 384 280 372 C200 362 100 372 0 400 Z" fill="#7aae5a"/>
<rect x="300" y="330" width="34" height="26" fill="#f2e6cc" stroke="#b89c6a" stroke-width="1.2"/><path d="M297 330 L317 309.2 L337 330 Z" fill="#b4462e"/><rect x="312.92" y="341.7" width="8.16" height="14.3" fill="#7a5a36"/><rect x="338" y="338" width="28" height="22" fill="#f2e6cc" stroke="#b89c6a" stroke-width="1.2"/><path d="M335 338 L352 320.4 L369 338 Z" fill="#2f5a9a"/><rect x="348.64" y="347.9" width="6.72" height="12.100000000000001" fill="#7a5a36"/><rect x="372" y="326" width="38" height="30" fill="#f2e6cc" stroke="#b89c6a" stroke-width="1.2"/><path d="M369 326 L391 302 L413 326 Z" fill="#b4462e"/><rect x="386.44" y="339.5" width="9.12" height="16.5" fill="#7a5a36"/><rect x="416" y="340" width="26" height="20" fill="#f2e6cc" stroke="#b89c6a" stroke-width="1.2"/><path d="M413 340 L429 324 L445 340 Z" fill="#8e6a3a"/><rect x="425.88" y="349" width="6.24" height="11" fill="#7a5a36"/><rect x="262" y="342" width="30" height="22" fill="#f2e6cc" stroke="#b89c6a" stroke-width="1.2"/><path d="M259 342 L277 324.4 L295 342 Z" fill="#2f5a9a"/><rect x="273.4" y="351.9" width="7.199999999999999" height="12.100000000000001" fill="#7a5a36"/><rect x="446" y="334" width="32" height="26" fill="#f2e6cc" stroke="#b89c6a" stroke-width="1.2"/><path d="M443 334 L462 313.2 L481 334 Z" fill="#b4462e"/><rect x="458.16" y="345.7" width="7.68" height="14.3" fill="#7a5a36"/>
<rect x="392" y="236" width="24" height="96" fill="#f2e6cc" stroke="#b89c6a" stroke-width="1.5"/>
<path d="M388 238 L404 200 L420 238 Z" fill="#1f3a6b"/>
<path d="M398 262 C398 252 410 252 410 262 V272 H398 Z" fill="#a8781c"/>
<path d="M392 300 C402 290 416 296 416 300" stroke="#b89c6a" stroke-width="1" fill="none"/>
<path d="M520 290 C540 250 600 240 640 260 L650 330 H510 Z" fill="#8fbf6a"/>
<rect x="560" y="222" width="52" height="58" fill="#f7f1e2" stroke="#b89c6a" stroke-width="1.5"/>
<path d="M556 222 H616 V214 H608 V222 M596 222 V214 H588 V222 M576 222 V214 H568 V222" fill="none" stroke="#b89c6a" stroke-width="1.5"/>
<rect x="578" y="252" width="16" height="28" fill="#7a5a36"/>
<path d="M586 214 V176" stroke="#7a5a36" stroke-width="2"/>
<path d="M586 176 L620 184 L586 194 Z" fill="#1f3a6b"/>
<g fill="#d9a93a"><ellipse cx="600" cy="181.9" rx="1.3" ry="2.3" transform="rotate(0 600 185)"/><ellipse cx="600" cy="181.9" rx="1.3" ry="2.3" transform="rotate(36 600 185)"/><ellipse cx="600" cy="181.9" rx="1.3" ry="2.3" transform="rotate(72 600 185)"/><ellipse cx="600" cy="181.9" rx="1.3" ry="2.3" transform="rotate(108 600 185)"/><ellipse cx="600" cy="181.9" rx="1.3" ry="2.3" transform="rotate(144 600 185)"/><ellipse cx="600" cy="181.9" rx="1.3" ry="2.3" transform="rotate(180 600 185)"/><ellipse cx="600" cy="181.9" rx="1.3" ry="2.3" transform="rotate(216 600 185)"/><ellipse cx="600" cy="181.9" rx="1.3" ry="2.3" transform="rotate(252 600 185)"/><ellipse cx="600" cy="181.9" rx="1.3" ry="2.3" transform="rotate(288 600 185)"/><ellipse cx="600" cy="181.9" rx="1.3" ry="2.3" transform="rotate(324 600 185)"/></g><circle cx="600" cy="185" r="1.8" fill="#a8781c"/>
<path d="M0 420 C160 400 300 430 460 470 C520 486 560 494 600 500 H0 Z" fill="#5f9a4a"/>
<path d="M0 470 C200 450 380 470 520 500 H0 Z" fill="#3f7a3a"/>
<g><g fill="#d9a93a"><ellipse cx="90" cy="462.42" rx="2.3" ry="4.0" transform="rotate(0 90 468)"/><ellipse cx="90" cy="462.42" rx="2.3" ry="4.0" transform="rotate(36 90 468)"/><ellipse cx="90" cy="462.42" rx="2.3" ry="4.0" transform="rotate(72 90 468)"/><ellipse cx="90" cy="462.42" rx="2.3" ry="4.0" transform="rotate(108 90 468)"/><ellipse cx="90" cy="462.42" rx="2.3" ry="4.0" transform="rotate(144 90 468)"/><ellipse cx="90" cy="462.42" rx="2.3" ry="4.0" transform="rotate(180 90 468)"/><ellipse cx="90" cy="462.42" rx="2.3" ry="4.0" transform="rotate(216 90 468)"/><ellipse cx="90" cy="462.42" rx="2.3" ry="4.0" transform="rotate(252 90 468)"/><ellipse cx="90" cy="462.42" rx="2.3" ry="4.0" transform="rotate(288 90 468)"/><ellipse cx="90" cy="462.42" rx="2.3" ry="4.0" transform="rotate(324 90 468)"/></g><circle cx="90" cy="468" r="3.2" fill="#a8781c"/><g fill="#d9a93a"><ellipse cx="140" cy="477.66" rx="1.8" ry="3.1" transform="rotate(0 140 482)"/><ellipse cx="140" cy="477.66" rx="1.8" ry="3.1" transform="rotate(36 140 482)"/><ellipse cx="140" cy="477.66" rx="1.8" ry="3.1" transform="rotate(72 140 482)"/><ellipse cx="140" cy="477.66" rx="1.8" ry="3.1" transform="rotate(108 140 482)"/><ellipse cx="140" cy="477.66" rx="1.8" ry="3.1" transform="rotate(144 140 482)"/><ellipse cx="140" cy="477.66" rx="1.8" ry="3.1" transform="rotate(180 140 482)"/><ellipse cx="140" cy="477.66" rx="1.8" ry="3.1" transform="rotate(216 140 482)"/><ellipse cx="140" cy="477.66" rx="1.8" ry="3.1" transform="rotate(252 140 482)"/><ellipse cx="140" cy="477.66" rx="1.8" ry="3.1" transform="rotate(288 140 482)"/><ellipse cx="140" cy="477.66" rx="1.8" ry="3.1" transform="rotate(324 140 482)"/></g><circle cx="140" cy="482" r="2.5" fill="#a8781c"/><g fill="#d9a93a"><ellipse cx="210" cy="469.04" rx="2.1" ry="3.6" transform="rotate(0 210 474)"/><ellipse cx="210" cy="469.04" rx="2.1" ry="3.6" transform="rotate(36 210 474)"/><ellipse cx="210" cy="469.04" rx="2.1" ry="3.6" transform="rotate(72 210 474)"/><ellipse cx="210" cy="469.04" rx="2.1" ry="3.6" transform="rotate(108 210 474)"/><ellipse cx="210" cy="469.04" rx="2.1" ry="3.6" transform="rotate(144 210 474)"/><ellipse cx="210" cy="469.04" rx="2.1" ry="3.6" transform="rotate(180 210 474)"/><ellipse cx="210" cy="469.04" rx="2.1" ry="3.6" transform="rotate(216 210 474)"/><ellipse cx="210" cy="469.04" rx="2.1" ry="3.6" transform="rotate(252 210 474)"/><ellipse cx="210" cy="469.04" rx="2.1" ry="3.6" transform="rotate(288 210 474)"/><ellipse cx="210" cy="469.04" rx="2.1" ry="3.6" transform="rotate(324 210 474)"/></g><circle cx="210" cy="474" r="2.9" fill="#a8781c"/><g fill="#d9a93a"><ellipse cx="46" cy="482.28" rx="1.6" ry="2.7" transform="rotate(0 46 486)"/><ellipse cx="46" cy="482.28" rx="1.6" ry="2.7" transform="rotate(36 46 486)"/><ellipse cx="46" cy="482.28" rx="1.6" ry="2.7" transform="rotate(72 46 486)"/><ellipse cx="46" cy="482.28" rx="1.6" ry="2.7" transform="rotate(108 46 486)"/><ellipse cx="46" cy="482.28" rx="1.6" ry="2.7" transform="rotate(144 46 486)"/><ellipse cx="46" cy="482.28" rx="1.6" ry="2.7" transform="rotate(180 46 486)"/><ellipse cx="46" cy="482.28" rx="1.6" ry="2.7" transform="rotate(216 46 486)"/><ellipse cx="46" cy="482.28" rx="1.6" ry="2.7" transform="rotate(252 46 486)"/><ellipse cx="46" cy="482.28" rx="1.6" ry="2.7" transform="rotate(288 46 486)"/><ellipse cx="46" cy="482.28" rx="1.6" ry="2.7" transform="rotate(324 46 486)"/></g><circle cx="46" cy="486" r="2.2" fill="#a8781c"/><g fill="#d9a93a"><ellipse cx="270" cy="484.28" rx="1.6" ry="2.7" transform="rotate(0 270 488)"/><ellipse cx="270" cy="484.28" rx="1.6" ry="2.7" transform="rotate(36 270 488)"/><ellipse cx="270" cy="484.28" rx="1.6" ry="2.7" transform="rotate(72 270 488)"/><ellipse cx="270" cy="484.28" rx="1.6" ry="2.7" transform="rotate(108 270 488)"/><ellipse cx="270" cy="484.28" rx="1.6" ry="2.7" transform="rotate(144 270 488)"/><ellipse cx="270" cy="484.28" rx="1.6" ry="2.7" transform="rotate(180 270 488)"/><ellipse cx="270" cy="484.28" rx="1.6" ry="2.7" transform="rotate(216 270 488)"/><ellipse cx="270" cy="484.28" rx="1.6" ry="2.7" transform="rotate(252 270 488)"/><ellipse cx="270" cy="484.28" rx="1.6" ry="2.7" transform="rotate(288 270 488)"/><ellipse cx="270" cy="484.28" rx="1.6" ry="2.7" transform="rotate(324 270 488)"/></g><circle cx="270" cy="488" r="2.2" fill="#a8781c"/></g>
<path d="M540 120 l10 6 l10 -6 M580 104 l8 5 l8 -5 M500 140 l7 4 l7 -4" stroke="#2a2019" stroke-width="2" fill="none" stroke-linecap="round" stroke-opacity=".6"/>
</svg>
